<?xml version="1.0" standalone="no"?>
<!DOCTYPE svg PUBLIC "-//W3C//DTD SVG 20010904//EN"
 "http://www.w3.org/TR/2001/REC-SVG-20010904/DTD/svg10.dtd">
<svg version="1.0" xmlns="http://www.w3.org/2000/svg"
 width="50" height="39" viewBox="0 0 50 39"
 preserveAspectRatio="xMidYMid meet">

<g transform="translate(0.000000,800.000000) scale(0.100000,-0.100000)"
fill="#000000" stroke="none">
<path d="M3957 7712 c-10 -10 -17 -30 -17 -44 0 -49 20 -54 240 -67 210 -12
320 -25 516 -62 86 -16 117 -18 133 -10 43 24 35 92 -13 111 -86 32 -559 90
-741 90 -86 0 -104 -3 -118 -18z"/>
<path d="M3436 7674 c-36 -36 -6 -104 46 -104 25 0 58 36 58 63 0 49 -70 76
-104 41z"/>
<path d="M5270 7470 c-39 -39 -14 -100 43 -100 55 0 79 73 35 104 -30 21 -54
20 -78 -4z"/>
<path d="M3892 7452 c-72 -26 -141 -87 -177 -157 -27 -53 -30 -68 -30 -149 0
-79 4 -98 27 -141 67 -128 199 -196 339 -174 152 24 258 142 267 299 3 61 0
86 -18 134 -27 71 -92 141 -164 176 -67 32 -172 37 -244 12z m157 -112 c85
-24 151 -110 151 -194 -1 -221 -321 -269 -390 -60 -48 145 94 296 239 254z"/>
<path d="M3960 7190 c-25 -25 -26 -62 -2 -83 39 -35 102 -9 102 41 0 28 -34
62 -60 62 -11 0 -29 -9 -40 -20z"/>
<path d="M3380 7405 c-69 -13 -134 -28 -146 -34 -45 -20 -38 -95 11 -107 13
-3 88 6 167 20 113 21 147 30 161 47 22 28 22 54 -3 79 -25 25 -34 24 -190 -5z"/>
<path d="M4499 7410 c-25 -15 -32 -58 -15 -85 11 -17 31 -26 83 -35 37 -7 106
-21 152 -31 75 -17 86 -18 107 -5 28 19 38 49 24 75 -15 29 -33 36 -145 59
-140 29 -187 34 -206 22z"/>
<path d="M2308 7325 c-144 -73 -172 -100 -147 -143 28 -50 47 -47 196 30 76
39 141 76 145 82 24 36 -7 97 -48 95 -10 0 -76 -29 -146 -64z"/>
<path d="M5757 7242 c-35 -39 -9 -102 41 -102 28 0 62 34 62 60 0 27 -35 60
-63 60 -13 0 -31 -8 -40 -18z"/>
<path d="M2615 7171 c-206 -89 -380 -186 -560 -309 -211 -144 -284 -209 -285
-254 0 -17 41 -48 64 -48 14 0 54 24 97 59 189 150 385 271 619 383 91 44 185
89 210 101 37 18 46 27 48 53 4 38 -19 64 -56 64 -15 0 -76 -22 -137 -49z"/>
<path d="M5274 7192 c-41 -27 -35 -96 10 -108 35 -8 61 3 75 32 18 39 -11 84
-54 84 -11 0 -25 -4 -31 -8z"/>
<path d="M3098 7071 c-70 -21 -134 -43 -142 -50 -25 -21 -20 -78 8 -96 23 -15
31 -14 123 14 54 16 118 35 143 41 25 7 53 19 63 27 38 35 9 104 -44 102 -13
0 -81 -17 -151 -38z"/>
<path d="M4750 7080 c-25 -25 -26 -52 -2 -78 16 -19 228 -90 299 -100 64 -9
84 81 24 112 -33 18 -260 86 -284 86 -10 0 -26 -9 -37 -20z"/>
<path d="M1658 6904 c-127 -102 -158 -134 -158 -166 0 -34 39 -63 72 -54 13 3
59 36 103 73 44 38 92 77 107 89 42 33 54 68 34 99 -28 43 -64 34 -158 -41z"/>
<path d="M6223 6959 c-28 -10 -46 -44 -38 -70 9 -27 241 -219 266 -219 26 0
59 35 59 64 0 25 -48 74 -165 167 -80 64 -92 69 -122 58z"/>
<path d="M3380 6875 c-170 -37 -406 -111 -437 -137 -18 -15 -16 -63 3 -82 21
-21 63 -20 121 3 71 28 254 78 368 101 106 22 125 34 125 81 0 29 -32 60 -60
58 -8 0 -62 -11 -120 -24z"/>
<path d="M4747 6812 c-36 -40 -9 -102 45 -102 51 0 78 69 40 103 -24 22 -65
21 -85 -1z"/>
<path d="M2250 6677 c-31 -15 -40 -76 -15 -97 37 -30 105 -1 105 46 0 12 -12
32 -26 43 -31 24 -31 25 -64 8z"/>
<path d="M6164 6615 c-25 -38 -9 -63 101 -166 56 -52 143 -140 195 -197 52
-56 105 -105 118 -108 34 -9 72 20 72 57 0 22 -13 44 -47 82 -93 103 -189 200
-275 278 -98 89 -134 100 -164 54z"/>
<path d="M3958 6552 l-38 -3 0 -203 c0 -112 3 -231 6 -265 l7 -61 43 0 c37 0
44 3 44 20 0 11 5 20 10 20 12 0 13 67 1 72 -5 2 -12 95 -16 208 -4 113 -10
207 -13 210 -4 3 -24 4 -44 2z"/>
<path d="M3735 6541 l-40 -6 4 -150 c2 -95 8 -153 15 -158 8 -6 8 -10 -1 -14
-9 -3 -13 -27 -13 -68 0 -41 4 -65 13 -68 9 -4 8 -8 -3 -16 -10 -7 -11 -11 -2
-11 7 0 12 -13 12 -33 0 -73 41 -147 82 -147 10 0 18 -4 18 -10 0 -5 9 -10 20
-10 29 0 28 67 -2 106 -13 16 -24 38 -24 49 -2 25 -14 469 -14 513 0 20 -5 31
-12 31 -7 -1 -31 -5 -53 -8z"/>
<path d="M4422 6487 c-46 -41 -61 -62 -67 -88 -4 -16 -10 -29 -14 -29 -3 0
-12 -30 -19 -67 -7 -38 -20 -108 -29 -158 -9 -49 -20 -92 -23 -95 -11 -8 -22
-79 -15 -99 3 -11 16 -22 28 -26 l22 -8 -22 -4 c-22 -4 -33 -33 -13 -33 6 0
10 -8 10 -19 0 -23 17 -37 52 -43 25 -5 29 -1 38 30 6 23 6 41 -1 54 -20 37
-8 185 19 235 7 12 12 38 12 58 0 22 6 38 15 41 11 5 15 21 15 61 0 50 3 57
38 92 26 24 41 49 46 74 l7 37 -43 0 c-24 -1 -49 -6 -56 -13z"/>
<path d="M3332 6468 c-31 -8 -33 -11 -26 -41 3 -18 10 -34 15 -37 4 -3 15 -22
24 -43 8 -20 19 -37 24 -37 5 0 11 -21 14 -46 2 -26 9 -49 15 -53 10 -7 72
-143 72 -160 0 -6 4 -11 9 -11 5 0 11 -11 13 -25 4 -16 1 -25 -8 -25 -7 0 -14
10 -16 23 -2 17 -10 22 -35 23 -45 1 -65 21 -61 60 1 18 -1 36 -5 40 -4 4 -7
34 -7 66 0 55 -25 157 -41 168 -4 3 -14 22 -22 43 -9 20 -21 37 -26 37 -14 0
-14 -50 3 -270 8 -102 18 -238 21 -303 4 -64 10 -119 13 -121 18 -10 75 8 79
25 3 11 9 19 14 19 5 0 9 33 9 74 l0 74 40 7 c22 4 40 11 40 16 0 5 4 9 9 9 5
0 14 -20 20 -44 6 -25 15 -48 21 -51 5 -3 10 -17 10 -31 0 -27 4 -28 65 -13
48 12 68 44 34 54 -10 4 -22 18 -25 33 -3 15 -16 50 -30 79 -13 28 -24 59 -24
69 0 9 -7 22 -16 28 -8 6 -20 32 -25 56 -6 25 -17 52 -26 62 -9 10 -13 26 -10
38 4 15 0 20 -13 20 -10 0 -22 12 -28 28 -21 55 -34 103 -28 109 5 5 -3 14
-39 44 -15 12 -28 14 -53 7z"/>
<path d="M4525 6439 c-6 -33 -4 -44 9 -51 12 -7 16 -24 16 -66 0 -68 6 -78 47
-84 31 -4 31 -4 43 54 7 32 17 58 21 58 15 0 10 27 -5 33 -8 3 -17 19 -21 35
-5 23 -16 34 -46 46 -55 22 -56 21 -64 -25z"/>
<path d="M1162 6413 c-23 -9 -169 -199 -267 -348 -110 -166 -215 -352 -215
-381 0 -30 33 -56 67 -52 31 3 36 9 162 223 76 129 164 257 281 408 33 43 60
85 60 93 0 19 -45 64 -62 63 -7 0 -19 -3 -26 -6z"/>
<path d="M4870 6336 c0 -6 -14 -17 -31 -25 -17 -7 -34 -23 -39 -35 -32 -83
-53 -132 -59 -136 -5 -4 -19 -36 -61 -147 -7 -18 -15 -33 -19 -33 -17 0 -43
-102 -37 -145 7 -40 48 -105 68 -105 18 0 37 72 31 120 -5 40 -3 50 9 50 9 0
19 18 26 51 15 62 51 149 63 149 5 0 9 6 9 14 0 34 47 114 95 160 28 28 54 60
57 71 4 19 0 21 -54 22 -38 1 -58 -3 -58 -11z"/>
<path d="M4990 6300 c-10 -31 -11 -46 -2 -65 13 -28 -2 -125 -19 -125 -5 0 -9
-8 -9 -17 0 -10 -7 -26 -15 -37 -7 -10 -21 -42 -31 -72 -9 -30 -20 -54 -24
-54 -4 0 -17 -27 -29 -61 -16 -41 -30 -64 -47 -71 -13 -6 -24 -15 -24 -19 0
-4 -9 -11 -20 -14 -28 -9 -50 -33 -50 -56 0 -43 96 -43 139 0 11 11 27 21 35
21 8 0 26 30 42 73 15 39 31 75 36 78 11 7 48 104 55 142 3 16 12 31 20 34 17
7 42 64 48 110 4 29 1 34 -23 39 -36 9 -52 23 -45 40 6 17 33 19 33 2 0 -6 6
-3 14 8 13 17 12 21 -5 37 -11 10 -23 15 -28 12 -5 -3 -12 4 -16 15 -10 30
-20 24 -35 -20z"/>
<path d="M6136 6304 c-34 -33 -20 -61 88 -177 212 -227 387 -470 499 -693 40
-78 69 -100 108 -80 13 6 28 23 33 38 8 22 0 42 -53 140 -140 252 -308 482
-500 680 -83 87 -109 108 -132 108 -15 0 -35 -7 -43 -16z"/>
<path d="M1407 6292 c-22 -24 -21 -65 1 -85 58 -53 137 28 82 83 -25 25 -62
26 -83 2z"/>
<path d="M2858 6290 c-35 -19 -36 -22 -27 -50 8 -22 17 -30 34 -30 12 0 36 -7
51 -15 38 -20 44 -19 77 10 27 24 27 25 10 46 -54 65 -81 72 -145 39z"/>
<path d="M2764 6236 c-32 -18 -40 -27 -42 -57 -3 -32 29 -126 46 -139 4 -3 16
-18 26 -33 9 -16 34 -36 54 -44 20 -8 40 -20 43 -26 4 -5 33 -13 65 -16 66 -7
135 -41 154 -76 9 -16 9 -35 2 -68 -11 -55 -8 -61 24 -41 13 9 31 14 41 12 13
-3 8 -9 -20 -21 -42 -18 -48 -50 -11 -55 38 -5 47 19 61 159 5 52 -20 102 -66
132 -53 33 -65 42 -79 55 -7 6 -24 12 -38 12 -54 0 -117 26 -161 66 -42 39
-45 45 -40 78 3 21 0 46 -7 60 l-12 24 -40 -22z"/>
<path d="M1998 6153 c-103 -95 -168 -168 -168 -191 0 -31 36 -64 65 -60 15 2
67 45 135 112 119 118 134 148 88 180 -36 26 -54 19 -120 -41z"/>
<path d="M6959 6186 c-16 -8 -25 -22 -27 -43 -3 -26 12 -55 74 -150 42 -65 84
-124 92 -130 38 -31 92 -1 92 50 0 33 -157 268 -186 278 -12 4 -32 2 -45 -5z"/>
<path d="M5905 6165 c-30 -29 -31 -45 -7 -75 20 -25 63 -30 87 -10 23 19 19
76 -7 94 -31 22 -45 20 -73 -9z"/>
<path d="M5310 6117 c-14 -12 -41 -46 -59 -75 -19 -28 -38 -52 -43 -52 -4 0
-17 -14 -27 -31 -19 -31 -59 -81 -113 -140 -16 -17 -28 -33 -28 -36 0 -6 -55
-78 -83 -108 -10 -11 -25 -32 -33 -47 -13 -25 -12 -28 12 -47 15 -12 31 -21
37 -21 16 0 67 51 67 67 0 7 4 13 9 13 5 0 23 21 40 46 17 26 40 53 51 61 11
8 20 20 20 26 0 7 19 32 42 57 40 43 41 44 34 15 -4 -17 -14 -35 -22 -41 -11
-9 -12 -13 -3 -16 8 -3 4 -13 -11 -31 -13 -15 -25 -36 -27 -48 -2 -11 -10 -33
-18 -49 -8 -16 -15 -36 -15 -45 0 -8 -4 -15 -8 -15 -5 0 -20 -27 -35 -61 -19
-45 -23 -61 -13 -65 20 -8 65 14 102 49 40 39 100 87 107 87 5 0 51 40 80 70
89 91 107 111 107 117 0 5 10 19 23 33 67 74 89 110 77 125 -10 12 -26 1 -103
-75 -50 -50 -94 -90 -98 -90 -4 0 -25 -16 -46 -35 -43 -40 -82 -49 -61 -15 7
11 16 20 20 20 5 0 8 8 8 18 0 10 9 28 20 40 11 12 20 34 20 50 0 15 9 38 21
50 50 54 86 187 51 187 -7 0 -17 6 -21 14 -5 8 -16 11 -25 8 -9 -4 -16 -2 -16
3 0 15 -13 11 -40 -13z"/>
<path d="M2534 6089 c-7 -12 12 -29 34 -29 10 0 10 4 0 20 -14 23 -24 25 -34
9z"/>
<path d="M4480 6004 c0 -15 6 -24 15 -24 8 0 15 -4 15 -9 0 -5 3 -16 6 -25 4
-11 1 -16 -10 -16 -9 0 -16 -4 -16 -10 0 -5 7 -10 15 -10 8 0 15 -5 15 -10 0
-7 -6 -7 -19 0 -28 14 -36 12 -21 -5 7 -8 19 -15 26 -15 8 0 11 -6 8 -15 -4
-8 -1 -15 5 -15 6 0 14 14 18 30 3 17 10 33 14 36 15 9 10 34 -7 34 -8 0 -13
4 -10 9 9 13 -17 60 -36 65 -14 3 -18 -2 -18 -20z"/>
<path d="M4540 6010 c0 -5 4 -10 9 -10 5 0 18 -3 28 -7 17 -6 17 -6 1 10 -18
19 -38 22 -38 7z"/>
<path d="M3901 5966 c-19 -21 -22 -30 -16 -70 10 -64 30 -64 98 -1 l22 20 -40
6 c-22 3 -32 7 -22 8 24 2 22 21 -3 21 -11 0 -20 5 -20 10 0 6 9 10 20 10 11
0 20 5 20 10 0 19 -36 10 -59 -14z"/>
<path d="M1456 5938 c-44 -41 -166 -230 -166 -258 0 -44 51 -75 87 -52 23 14
183 252 183 272 0 26 -34 60 -59 60 -11 0 -31 -10 -45 -22z"/>
<path d="M5592 5914 c-12 -8 -29 -28 -37 -44 -8 -15 -27 -41 -43 -57 -16 -15
-31 -33 -33 -40 -4 -12 -60 -81 -96 -120 -13 -13 -23 -26 -23 -30 0 -3 -13
-22 -30 -43 -16 -21 -30 -43 -30 -49 0 -6 -4 -11 -10 -11 -5 0 -22 -19 -37
-42 -15 -24 -35 -51 -45 -61 -26 -26 -22 -40 13 -56 25 -11 35 -11 55 -1 13 8
24 18 24 24 0 6 11 23 25 38 14 15 25 34 25 41 0 8 9 17 20 20 11 3 27 22 35
42 9 20 22 38 30 41 8 3 28 28 46 55 17 27 34 49 38 49 11 0 41 61 35 72 -3 5
-17 13 -30 18 -27 10 -33 30 -9 30 8 0 15 -4 15 -10 0 -19 39 -31 60 -18 11 7
20 17 20 21 0 9 30 51 65 90 8 10 10 17 4 17 -6 0 -23 9 -38 20 -25 17 -30 18
-49 4z"/>
<path d="M4100 5886 c0 -26 5 -35 22 -40 28 -7 36 1 44 42 6 31 6 32 -30 32
-34 0 -36 -2 -36 -34z"/>
<path d="M2654 5861 c-16 -17 -34 -31 -40 -31 -7 0 -26 -13 -44 -30 -18 -16
-36 -30 -41 -30 -5 0 -9 -4 -9 -9 0 -10 28 -41 37 -41 13 0 74 43 82 58 5 8
26 25 47 37 29 16 39 28 39 46 0 37 -36 37 -71 0z"/>
<path d="M4386 5855 c-4 -20 -4 -40 -1 -45 8 -13 62 -13 70 0 3 6 1 10 -4 10
-6 0 -11 7 -11 15 0 8 -7 15 -15 15 -21 0 -19 20 3 21 14 0 14 2 -3 9 -31 13
-32 12 -39 -25z"/>
<path d="M2152 5767 c-29 -29 -52 -57 -52 -63 0 -6 9 -19 19 -28 19 -17 21
-17 45 1 14 10 26 21 26 26 0 4 11 7 23 7 25 0 79 -47 252 -217 93 -91 93 -92
88 -133 -4 -30 -10 -40 -20 -36 -20 8 -28 -23 -10 -41 24 -24 44 -10 41 29
l-3 33 8 -30 8 -30 11 27 c6 14 20 29 31 33 32 10 42 38 30 77 -17 52 -31 78
-45 78 -6 0 -21 16 -33 35 -11 19 -27 35 -36 35 -8 0 -15 5 -15 11 0 6 -7 9
-14 6 -10 -4 -13 -1 -10 7 3 8 -2 20 -11 27 -9 8 -38 34 -65 59 -91 86 -125
113 -164 126 -21 8 -41 14 -45 14 -4 0 -30 -24 -59 -53z m398 -307 c0 -5 -4
-10 -10 -10 -5 0 -10 5 -10 10 0 6 5 10 10 10 6 0 10 -4 10 -10z"/>
<path d="M2954 5785 c-4 -8 -12 -15 -19 -15 -25 0 -37 -27 -24 -52 28 -53 56
-68 128 -68 37 0 70 3 73 6 3 3 3 17 -1 31 -5 17 -24 34 -61 54 -30 16 -58 35
-62 44 -11 19 -27 19 -34 0z"/>
<path d="M2057 5662 c-15 -16 -27 -32 -27 -38 0 -5 24 -29 53 -54 28 -25 91
-84 139 -132 48 -48 98 -94 112 -104 15 -9 26 -22 26 -30 0 -20 21 -28 31 -13
16 25 10 68 -11 79 -11 6 -20 17 -20 26 0 8 -11 26 -25 40 -14 14 -25 27 -25
30 0 5 -144 149 -196 195 l-31 28 -26 -27z"/>
<path d="M3690 5661 c-150 -25 -180 -32 -180 -42 0 -5 -5 -9 -12 -9 -22 0
-208 -62 -208 -70 0 -4 -36 -22 -80 -41 -44 -18 -80 -36 -80 -41 0 -4 -22 -19
-49 -32 -27 -14 -51 -32 -54 -41 -4 -8 -11 -15 -17 -15 -12 0 -66 -39 -119
-85 -51 -45 -211 -207 -211 -214 -1 -3 -14 -22 -30 -41 -17 -19 -30 -37 -30
-41 0 -4 -13 -21 -30 -39 -16 -18 -30 -38 -30 -46 0 -7 -8 -21 -18 -31 -10
-10 -31 -47 -47 -83 -15 -36 -32 -68 -37 -71 -5 -3 -23 -46 -40 -95 -17 -49
-34 -91 -39 -94 -13 -9 -59 -248 -66 -341 -3 -49 -10 -89 -14 -89 -5 0 -9 -45
-9 -100 0 -60 4 -100 10 -100 6 0 10 -21 10 -47 1 -93 54 -383 71 -383 4 0 10
-12 13 -27 13 -53 58 -163 67 -163 5 0 9 -6 9 -14 0 -15 54 -126 67 -135 8 -6
34 -50 57 -98 6 -13 14 -23 18 -23 4 0 18 -16 32 -36 32 -47 100 -125 155
-177 24 -23 60 -59 81 -79 20 -21 41 -38 46 -38 5 0 25 -15 44 -32 37 -34 83
-64 113 -74 9 -4 17 -11 17 -16 0 -5 24 -20 53 -33 30 -13 60 -29 68 -37 14
-13 30 -20 144 -61 33 -12 62 -25 65 -29 8 -10 206 -56 277 -64 32 -4 61 -12
65 -17 10 -16 421 -14 426 1 2 7 16 12 30 12 58 0 302 55 312 70 3 4 21 12 40
18 57 17 143 51 149 59 3 5 38 23 76 42 39 19 72 37 75 41 3 3 22 16 43 29 21
13 44 29 51 36 7 8 29 25 49 38 37 25 55 41 160 140 37 36 67 70 67 76 0 6 14
20 30 33 17 12 30 27 30 32 0 6 15 27 33 47 33 37 50 63 76 114 8 17 20 35 27
40 7 6 24 39 39 74 15 35 32 70 40 77 7 8 25 53 40 101 15 49 31 90 36 93 11
8 46 186 60 310 13 115 7 381 -11 490 -14 86 -41 204 -49 210 -4 3 -22 51 -40
108 -19 56 -37 102 -41 102 -4 0 -20 30 -35 68 -15 37 -33 72 -40 77 -6 6 -24
34 -40 63 -15 28 -31 52 -35 52 -4 0 -21 22 -39 49 -17 27 -46 65 -64 84 -116
125 -138 147 -146 147 -5 0 -22 15 -38 33 -29 32 -42 41 -96 75 -15 9 -42 29
-59 45 -18 15 -37 27 -43 27 -6 0 -20 8 -31 18 -21 19 -145 82 -162 82 -6 0
-12 4 -14 9 -4 11 -172 71 -198 71 -10 0 -20 5 -22 10 -2 6 -50 20 -108 31
-156 30 -502 35 -660 10z m605 -176 c50 -9 92 -21 93 -26 2 -5 9 -9 15 -9 21
0 182 -54 193 -65 6 -6 42 -24 80 -40 38 -16 74 -35 79 -41 6 -7 29 -22 53
-34 23 -12 46 -27 50 -34 4 -6 26 -24 50 -39 24 -15 45 -34 49 -42 3 -8 10
-15 17 -15 13 0 146 -129 146 -141 0 -4 15 -23 33 -42 53 -58 77 -90 93 -123
8 -17 23 -40 33 -51 10 -10 33 -50 51 -89 18 -38 36 -71 40 -74 7 -6 60 -169
60 -187 0 -6 5 -13 10 -15 17 -5 50 -210 56 -348 7 -131 -5 -287 -32 -420 -9
-41 -20 -76 -25 -78 -5 -2 -9 -10 -9 -18 0 -19 -51 -168 -60 -174 -4 -3 -20
-34 -35 -70 -16 -36 -34 -70 -40 -75 -7 -6 -22 -28 -34 -50 -30 -56 -41 -73
-78 -114 -18 -20 -33 -39 -33 -42 0 -9 -178 -189 -187 -189 -4 0 -28 -18 -52
-40 -25 -22 -60 -47 -78 -55 -18 -9 -41 -24 -51 -34 -9 -11 -46 -31 -82 -46
-36 -15 -68 -31 -71 -36 -6 -10 -126 -59 -145 -59 -7 0 -14 -4 -16 -10 -1 -5
-57 -22 -123 -36 -147 -31 -426 -44 -570 -25 -102 13 -256 48 -265 59 -3 4
-38 18 -78 31 -40 13 -79 29 -85 35 -7 6 -39 23 -71 38 -33 14 -69 35 -80 45
-12 10 -31 24 -43 30 -13 7 -33 19 -46 26 -12 6 -32 21 -43 32 -12 11 -45 40
-75 65 -62 52 -88 79 -144 145 -22 26 -50 58 -62 71 -13 14 -23 27 -23 30 0 3
-11 20 -24 37 -13 18 -27 42 -30 54 -4 11 -12 23 -19 26 -7 3 -26 37 -42 76
-15 39 -31 71 -35 71 -4 0 -20 39 -36 88 -16 48 -32 89 -36 92 -4 3 -17 53
-30 110 -20 93 -22 132 -22 340 0 208 2 247 22 340 13 57 27 107 31 110 5 3
21 44 35 92 15 48 31 88 35 90 4 2 23 34 41 73 18 38 39 76 47 83 7 8 22 31
33 52 11 21 25 44 32 51 7 8 27 32 45 54 33 43 93 111 117 134 86 81 149 131
165 131 6 0 15 8 20 18 5 9 33 30 63 46 29 16 55 32 58 36 7 10 135 70 149 70
6 0 11 4 11 8 0 9 155 62 183 62 9 0 17 4 17 9 0 8 62 22 185 41 91 14 415 4
520 -15z"/>
<path d="M4425 5130 c-39 -9 -118 -50 -128 -66 -4 -7 -23 -22 -42 -34 -19 -12
-35 -28 -35 -36 0 -8 -8 -17 -17 -21 -10 -3 -25 -15 -34 -26 -16 -19 -18 -20
-80 -4 -35 9 -87 19 -116 23 -43 5 -50 9 -39 19 19 19 113 45 163 45 39 0 43
2 43 24 0 13 -8 27 -17 30 -25 10 -103 -4 -124 -22 -10 -9 -31 -18 -46 -19
-15 -2 -45 -13 -66 -24 -21 -10 -43 -19 -49 -19 -6 0 -16 -7 -23 -16 -6 -9
-49 -28 -95 -41 -46 -13 -89 -32 -96 -41 -12 -15 -13 -15 -14 -1 0 9 10 27 23
40 12 13 30 36 39 50 10 15 33 36 51 48 39 24 49 41 37 61 -7 11 -15 10 -44
-4 -20 -9 -36 -23 -36 -31 0 -8 -13 -21 -30 -30 -16 -8 -36 -30 -45 -49 -9
-18 -24 -42 -34 -52 -27 -30 -32 -52 -13 -63 10 -6 12 -11 5 -11 -7 0 -13 -6
-13 -12 -1 -7 -21 -26 -45 -41 -25 -16 -45 -36 -45 -45 0 -32 -34 -43 -81 -27
-23 8 -50 15 -59 15 -10 0 -20 6 -22 13 -4 9 -40 12 -138 12 -98 0 -134 -3
-137 -12 -3 -7 -10 -13 -16 -13 -13 0 -57 -63 -57 -80 0 -5 -10 -15 -22 -22
-23 -13 -27 -23 -33 -88 -4 -51 22 -173 40 -183 8 -4 15 -14 15 -22 0 -22 36
-98 61 -128 58 -70 102 -111 106 -100 8 24 53 -37 53 -72 0 -19 -4 -35 -9 -35
-5 0 -12 -16 -15 -35 -8 -39 -17 -43 -42 -18 -11 12 -33 17 -68 18 -50 0 -51
-1 -54 -32 -2 -17 -9 -37 -17 -43 -16 -14 -10 -62 12 -97 8 -12 12 -26 9 -32
-6 -9 12 -61 25 -71 3 -3 15 -23 26 -45 30 -62 46 -86 75 -116 17 -17 30 -44
34 -68 4 -23 10 -41 15 -41 5 0 9 -7 9 -15 0 -30 65 -175 81 -180 9 -3 21 -17
27 -30 6 -14 16 -25 22 -25 5 0 10 -9 10 -20 0 -15 9 -22 30 -27 17 -3 28 -8
26 -11 -10 -9 14 -41 41 -54 42 -21 77 -42 83 -49 3 -3 20 -14 38 -23 26 -14
40 -15 63 -7 18 6 31 6 34 0 4 -5 32 -9 65 -9 42 0 59 -4 64 -15 3 -8 13 -15
21 -15 9 0 24 -7 33 -16 14 -15 36 -16 171 -12 101 4 157 10 159 17 2 6 16 11
30 11 15 0 72 12 127 26 55 15 110 29 123 31 12 3 22 9 22 13 0 4 15 13 33 21
17 7 43 21 56 31 13 10 31 18 40 18 9 0 21 8 28 19 6 10 28 22 48 25 26 5 42
17 58 41 12 19 27 35 34 35 7 0 18 10 24 23 7 12 20 28 31 35 10 7 18 19 18
26 0 8 6 16 14 19 8 3 20 24 27 46 8 29 18 41 31 41 24 0 68 39 68 62 0 10 9
26 20 35 11 10 20 24 20 33 0 8 6 27 14 41 41 79 44 250 7 385 -15 52 -17 87
-13 175 5 119 -10 243 -34 267 -8 7 -14 20 -14 27 0 18 -39 45 -65 45 -32 0
-75 -23 -75 -40 0 -8 -9 -21 -20 -28 -11 -7 -20 -9 -20 -4 0 4 -16 25 -35 47
-19 22 -35 43 -35 47 0 4 7 33 15 64 20 76 17 205 -5 274 -10 30 -21 70 -25
88 -4 18 -13 36 -21 39 -8 3 -14 11 -14 17 0 7 -13 25 -30 41 -16 16 -30 35
-30 42 0 7 -6 13 -14 13 -8 0 -26 14 -39 30 -27 31 -51 36 -112 20z m99 -166
c8 -3 20 -29 27 -60 7 -32 18 -54 26 -54 7 0 13 -7 13 -15 0 -8 -6 -15 -12
-15 -9 0 -8 -4 2 -10 13 -9 13 -10 0 -10 -13 0 -13 -1 0 -10 10 -6 11 -10 3
-10 -9 0 -13 -17 -13 -52 0 -66 -12 -88 -31 -61 -8 10 -25 26 -39 34 -14 9
-37 27 -51 41 -30 28 -119 88 -131 88 -17 0 -7 29 12 35 11 3 32 22 47 41 37
50 102 75 147 58z m-503 -180 c38 -8 69 -19 69 -22 0 -4 27 -18 61 -32 33 -14
68 -32 77 -40 23 -20 100 -70 108 -70 4 0 22 -18 41 -40 19 -22 39 -40 44 -40
12 0 101 -90 114 -115 6 -11 20 -21 32 -23 12 -2 24 -13 27 -27 3 -13 15 -27
26 -30 13 -4 20 -15 20 -33 0 -16 11 -37 25 -51 14 -13 25 -29 25 -37 0 -19
-22 -64 -32 -64 -13 0 -9 -40 5 -40 7 0 5 -4 -4 -10 -9 -5 -20 -26 -24 -46 -4
-24 -13 -38 -26 -41 -14 -4 -18 -11 -14 -24 4 -12 1 -19 -7 -19 -14 0 -55 -60
-41 -60 4 0 0 -5 -9 -11 -10 -5 -18 -19 -18 -29 0 -11 -6 -20 -14 -20 -8 0
-16 -5 -18 -12 -3 -8 -14 -5 -35 10 -17 12 -38 22 -46 22 -9 0 -17 5 -19 10
-7 22 -146 34 -247 21 -52 -6 -98 -15 -101 -20 -3 -5 -21 -12 -40 -16 -56 -12
-144 -50 -173 -75 -14 -12 -36 -28 -49 -34 -12 -6 -28 -22 -35 -36 -7 -14 -18
-29 -26 -35 -7 -5 -17 -26 -23 -45 -8 -28 -15 -36 -37 -38 -15 -2 -27 1 -27 6
0 5 -13 15 -30 22 -16 7 -30 15 -30 19 0 11 -89 53 -99 46 -6 -3 -11 2 -11 12
0 12 -20 30 -59 51 -32 18 -62 39 -65 47 -3 8 -13 15 -22 15 -15 0 -16 10 -10
92 4 51 12 95 17 99 15 9 15 109 0 118 -18 11 -17 67 2 86 18 18 37 77 37 116
0 14 7 34 15 45 8 10 15 28 15 40 0 12 10 25 26 32 14 7 23 16 20 21 -4 5 7
15 23 22 17 8 42 35 60 66 18 29 36 53 41 53 6 0 22 18 36 40 14 22 47 52 73
67 25 14 52 32 59 39 7 7 29 16 50 19 20 4 42 8 47 10 27 9 134 3 196 -11z
m-771 -183 c3 -5 22 -14 42 -20 l37 -12 -20 -22 c-11 -13 -18 -30 -15 -41 8
-29 -5 -76 -20 -76 -8 0 -13 -8 -12 -17 2 -27 -13 -83 -23 -83 -5 0 -9 -7 -9
-15 0 -8 -4 -15 -10 -15 -5 0 -10 -7 -10 -15 0 -22 -18 -18 -31 8 -7 12 -18
26 -25 30 -8 4 -23 30 -35 57 -12 28 -24 50 -28 50 -10 0 -31 84 -31 121 0 33
15 54 46 62 25 7 137 -2 144 -12z m1630 -280 c0 -11 4 -21 9 -23 5 -1 11 -94
13 -205 3 -197 2 -203 -18 -218 -12 -8 -29 -33 -38 -55 -9 -23 -25 -51 -36
-62 -11 -12 -20 -29 -20 -37 0 -9 -9 -22 -20 -29 -11 -7 -20 -18 -20 -25 0
-19 -63 -57 -94 -57 -40 0 -92 35 -104 70 -13 35 2 98 24 107 8 3 14 13 14 22
0 23 34 91 58 117 11 11 23 35 27 53 4 17 18 44 31 58 13 14 24 32 24 39 0 8
4 14 8 14 5 0 23 36 42 80 19 44 37 80 41 80 3 0 14 20 23 45 18 46 36 59 36
26z m-1758 -483 c14 -10 29 -18 32 -18 3 0 17 -11 32 -25 33 -31 83 -57 96
-49 5 3 25 -11 46 -31 20 -19 47 -38 58 -41 12 -3 26 -16 32 -29 7 -16 29 -30
62 -42 27 -10 50 -21 50 -25 0 -5 16 -8 35 -8 28 0 36 -4 41 -25 3 -13 14 -27
23 -30 23 -7 41 -47 41 -91 0 -26 -8 -42 -36 -69 -42 -41 -88 -46 -124 -15
-13 11 -27 20 -32 20 -6 0 -23 9 -39 21 -17 12 -40 19 -57 17 -22 -2 -28 1
-30 22 -3 14 -31 51 -68 87 -35 34 -64 66 -64 70 0 5 -15 25 -34 45 -19 20
-46 63 -61 94 -15 32 -34 64 -41 72 -8 7 -14 19 -14 25 0 7 -3 22 -6 35 -5 19
-3 21 12 16 11 -4 31 -16 46 -26z m1014 -23 c7 -17 34 -21 34 -5 0 6 27 10 60
10 33 0 60 -4 60 -9 0 -4 18 -11 41 -14 53 -7 79 -31 79 -74 0 -18 5 -33 10
-33 19 0 11 -55 -11 -68 -12 -7 -18 -16 -15 -19 3 -3 -14 -24 -38 -47 -23 -23
-46 -49 -49 -59 -4 -9 -15 -20 -24 -24 -23 -8 -77 -46 -81 -55 -2 -5 -12 -8
-22 -8 -10 0 -21 -3 -24 -8 -7 -12 -179 3 -184 16 -2 7 -10 12 -19 12 -39 0
-193 121 -193 152 0 30 88 128 115 128 8 0 18 6 22 13 4 8 32 22 62 33 29 10
64 28 76 40 39 36 91 46 101 19z m701 -238 c-6 -26 -16 -47 -23 -47 -7 0 -20
-15 -29 -32 -8 -18 -28 -49 -45 -68 -16 -19 -30 -38 -30 -42 0 -4 -9 -10 -20
-13 -11 -3 -36 -22 -56 -41 -20 -19 -42 -34 -49 -34 -7 0 -24 -11 -39 -25 -28
-26 -66 -44 -146 -72 -25 -8 -47 -19 -50 -23 -8 -11 -157 -49 -222 -56 -32 -4
-58 -11 -58 -15 0 -5 -65 -9 -145 -9 -80 0 -145 4 -145 9 0 4 -15 11 -32 14
-56 9 -147 38 -160 51 -7 6 -28 18 -46 25 -49 20 -49 32 0 25 94 -13 184 41
214 129 16 47 16 47 51 41 20 -4 44 -14 54 -23 40 -36 51 -43 97 -56 62 -19
185 -19 250 0 29 9 52 19 52 23 0 4 14 13 31 21 46 20 141 122 168 180 21 43
26 48 38 35 8 -8 23 -14 33 -14 11 0 24 -9 30 -19 13 -26 86 -37 146 -22 45
12 104 47 104 63 0 7 32 46 37 44 1 -1 -4 -22 -10 -49z"/>
<path d="M4424 4452 c-6 -4 -18 -21 -27 -38 -30 -59 -143 -161 -199 -180 -23
-8 -31 -44 -10 -45 11 0 12 -2 5 -6 -20 -8 -15 -31 8 -38 26 -9 66 1 99 25 24
17 29 18 46 5 68 -51 152 29 105 99 -20 30 -20 30 1 59 41 58 19 151 -28 119z"/>
<path d="M3983 4294 c-3 -9 0 -19 6 -24 9 -5 7 -19 -10 -54 -26 -55 -43 -57
-77 -6 -32 47 -58 57 -67 23 -7 -29 9 -53 35 -53 11 0 26 -15 37 -37 10 -20
25 -41 34 -46 31 -19 45 0 63 82 10 45 22 81 27 81 16 0 10 38 -7 44 -25 9
-34 7 -41 -10z"/>
<path d="M3442 4136 l-32 -34 23 -15 c13 -8 34 -17 48 -19 20 -2 25 -9 27 -40
2 -22 -1 -38 -7 -38 -6 0 -11 -7 -11 -15 0 -8 7 -15 15 -15 9 0 18 -7 21 -15
4 -8 18 -15 34 -15 29 0 54 22 64 56 6 18 12 20 66 16 69 -5 90 6 90 49 0 34
-23 49 -77 49 -43 1 -125 18 -133 28 -6 8 -77 42 -88 42 -4 0 -22 -15 -40 -34z"/>
<path d="M4013 4067 c-29 -5 -53 -14 -53 -18 0 -5 -7 -9 -15 -9 -24 0 -65 -22
-65 -36 0 -7 -9 -16 -20 -19 -25 -8 -26 -35 -2 -35 11 0 29 9 42 20 32 28 82
41 178 47 87 6 107 18 82 48 -14 17 -67 18 -147 2z"/>
<path d="M4040 3989 c-30 -5 -56 -14 -58 -19 -2 -6 -12 -10 -22 -10 -10 0 -26
-7 -34 -16 -9 -9 -29 -19 -44 -23 -37 -10 -44 -51 -8 -51 13 0 32 7 41 16 21
22 146 54 208 54 30 0 54 6 64 15 17 18 17 18 -14 34 -25 13 -54 13 -133 0z"/>
<path d="M4247 3749 c-9 -5 -21 -8 -25 -5 -15 9 -42 -33 -42 -64 0 -17 3 -30
8 -30 4 0 12 -10 17 -22 15 -35 84 -37 119 -5 26 24 38 87 16 87 -5 0 -10 7
-10 15 0 15 -30 35 -52 35 -7 0 -21 -5 -31 -11z"/>
<path d="M3903 3674 c-7 -3 -13 -13 -13 -23 0 -9 -9 -24 -20 -34 -48 -41 -9
-107 63 -107 72 0 96 77 44 142 -14 18 -55 30 -74 22z"/>
<path d="M6407 5552 c-23 -25 -21 -58 3 -82 39 -39 100 -14 100 43 0 52 -68
78 -103 39z"/>
<path d="M5855 5529 c-5 -14 -2 -25 6 -30 24 -15 44 -5 47 24 3 23 0 27 -22
27 -16 0 -27 -7 -31 -21z"/>
<path d="M7336 5474 c-36 -36 -6 -104 46 -104 25 0 58 36 58 63 0 49 -70 76
-104 41z"/>
<path d="M5798 5423 c-22 -6 -35 -50 -21 -72 5 -9 24 -20 41 -26 18 -5 32 -13
32 -17 0 -16 22 -7 49 20 16 16 24 31 19 37 -4 6 -16 20 -26 32 -17 23 -62 36
-94 26z"/>
<path d="M837 5388 c-12 -13 -44 -83 -72 -156 -46 -126 -48 -135 -34 -160 16
-29 37 -37 74 -28 18 5 29 22 50 78 15 40 41 104 56 142 34 81 36 99 9 126
-26 26 -56 25 -83 -2z"/>
<path d="M1391 5343 c-33 -41 -11 -93 40 -93 57 0 81 59 42 103 -23 25 -58 21
-82 -10z"/>
<path d="M7114 5342 c-58 -39 -14 -129 54 -108 27 9 44 50 33 80 -13 32 -59
47 -87 28z"/>
<path d="M1801 5304 c-10 -22 -9 -30 5 -45 9 -11 25 -19 35 -19 9 0 20 -6 22
-12 4 -10 6 -10 6 0 1 17 39 15 57 -2 19 -20 18 -26 -6 -26 -30 0 -24 -18 7
-22 15 -2 32 -12 38 -23 5 -11 19 -20 30 -20 11 0 20 -6 20 -13 0 -19 36 -43
56 -37 11 4 18 -1 21 -13 3 -10 22 -26 42 -36 21 -10 46 -26 55 -35 34 -34 48
-32 69 9 19 38 19 40 1 45 -11 4 -19 10 -19 15 0 5 -16 16 -35 25 -19 9 -39
23 -46 31 -6 8 -22 14 -36 14 -25 0 -33 5 -92 60 -56 52 -72 58 -134 54 -50
-4 -57 -2 -57 14 0 10 6 24 12 30 10 10 10 15 -2 22 -24 16 -36 12 -49 -16z
m189 -124 c8 -5 11 -12 7 -16 -4 -4 -15 0 -24 9 -18 18 -8 23 17 7z"/>
<path d="M2420 5296 c-11 -21 -10 -28 7 -50 11 -13 34 -37 51 -51 l32 -27 0
34 c0 19 4 38 9 44 13 12 -43 74 -67 74 -10 0 -24 -11 -32 -24z m60 -66 c0 -5
-7 -10 -15 -10 -8 0 -15 5 -15 10 0 6 7 10 15 10 8 0 15 -4 15 -10z"/>
<path d="M1062 5252 c-22 -22 -112 -260 -112 -294 0 -29 9 -42 37 -57 33 -17
70 4 84 48 6 20 29 82 50 139 45 117 47 134 19 162 -25 25 -54 26 -78 2z"/>
<path d="M503 5248 c-43 -21 -141 -375 -188 -672 -14 -89 -25 -168 -25 -174 0
-20 39 -52 63 -52 43 0 57 30 77 167 30 202 75 398 132 574 35 106 33 139 -7
157 -14 7 -27 12 -28 11 -1 0 -12 -5 -24 -11z"/>
<path d="M2371 5148 c-17 -18 -39 -49 -48 -70 -9 -21 -20 -38 -25 -38 -9 0
-34 -38 -42 -66 -5 -18 0 -25 30 -39 l37 -17 33 35 c18 19 47 61 65 93 17 33
36 62 41 65 9 6 -40 69 -53 69 -4 0 -21 -14 -38 -32z"/>
<path d="M1687 5088 c-10 -23 -11 -35 -3 -40 7 -5 7 -8 1 -8 -16 -1 58 -39 78
-40 9 0 17 -4 17 -9 0 -5 36 -23 80 -42 44 -18 80 -36 80 -40 0 -4 10 -11 23
-14 46 -14 127 -49 127 -56 0 -4 37 -22 82 -39 l82 -32 18 24 c34 45 13 78
-60 93 -18 4 -38 12 -45 19 -16 15 -153 76 -172 76 -8 0 -15 3 -15 8 0 4 -17
16 -37 26 -21 10 -50 25 -65 32 -14 8 -33 14 -42 14 -9 0 -16 4 -16 9 0 5 -19
16 -42 24 -24 8 -51 18 -60 22 -13 5 -21 -1 -31 -27z"/>
<path d="M5983 5098 c-12 -6 -24 -21 -27 -35 -4 -13 -18 -28 -32 -34 -25 -9
-26 -12 -22 -66 3 -31 10 -59 17 -61 6 -2 25 -15 40 -28 16 -13 36 -24 45 -24
9 0 16 -4 16 -10 0 -5 16 -10 35 -10 19 0 35 4 35 9 0 5 18 16 40 25 44 18 62
47 62 106 1 55 -13 87 -53 118 -22 17 -128 24 -156 10z"/>
<path d="M6663 5090 c-41 -17 -39 -52 12 -207 39 -120 52 -146 72 -156 35 -16
77 9 81 47 5 44 -75 277 -104 304 -28 24 -29 25 -61 12z"/>
<path d="M7529 4983 c-9 -2 -22 -14 -29 -27 -10 -20 -7 -46 19 -167 18 -78 37
-151 42 -161 22 -41 93 -30 105 17 6 24 -23 176 -52 274 -8 28 -23 55 -34 61
-19 10 -24 11 -51 3z"/>
<path d="M6974 4962 c-34 -22 -33 -46 7 -197 38 -148 52 -175 89 -175 8 0 26
7 39 16 21 15 23 22 17 68 -9 80 -65 270 -83 284 -19 13 -52 16 -69 4z"/>
<path d="M1195 4854 c-25 -25 -16 -75 17 -93 25 -14 29 -14 55 5 34 26 40 48
19 79 -19 29 -66 34 -91 9z"/>
<path d="M1577 4817 c-10 -31 -11 -45 -3 -52 6 -6 51 -23 100 -39 48 -17 90
-35 93 -42 2 -6 24 -17 49 -23 52 -13 51 -33 0 -21 -19 4 -38 5 -41 2 -3 -4
-10 0 -14 7 -6 8 -14 10 -22 5 -7 -4 -31 -7 -53 -5 -22 2 -67 4 -99 4 l-58 2
-10 -38 c-5 -20 -8 -41 -5 -45 3 -5 30 -17 60 -27 31 -11 56 -22 56 -26 0 -4
16 -13 35 -19 19 -6 35 -18 35 -25 0 -7 3 -20 6 -29 5 -12 0 -16 -20 -16 -14
0 -26 4 -26 9 0 12 -160 26 -170 15 -4 -5 -11 -26 -14 -46 -7 -37 -6 -38 24
-38 16 0 30 -4 30 -10 0 -6 28 -10 63 -10 34 0 117 -7 184 -15 66 -8 145 -14
174 -14 50 1 109 -6 152 -18 14 -4 17 2 17 35 l0 40 -87 7 c-112 9 -214 22
-221 29 -13 14 9 14 83 1 44 -8 107 -14 140 -14 l60 1 -35 15 c-19 8 -38 20
-41 25 -4 6 -18 12 -31 13 -14 2 -33 7 -44 13 -10 6 -38 15 -61 21 -40 11 -73
33 -73 51 0 8 193 5 301 -6 60 -6 67 -5 73 12 3 11 2 32 -2 49 -8 30 -34 44
-104 59 -15 3 -33 13 -41 21 -16 16 -73 38 -155 60 -29 8 -63 24 -75 35 -21
20 -54 33 -73 29 -19 -4 -75 24 -85 42 -5 10 -20 19 -33 19 -19 0 -27 -9 -39
-43z m201 -360 c6 -5 12 -16 12 -24 0 -18 -44 -10 -67 12 -29 30 18 41 55 12z"/>
<path d="M7267 4822 c-35 -39 -9 -102 41 -102 29 0 62 34 62 63 0 50 -70 76
-103 39z"/>
<path d="M607 4622 c-22 -24 -21 -65 1 -85 40 -36 102 -9 102 45 0 51 -69 78
-103 40z"/>
<path d="M6138 4458 c-16 -6 -28 -14 -28 -19 0 -5 -17 -9 -39 -9 -22 0 -44 -6
-51 -15 -7 -8 -17 -15 -22 -15 -5 0 -27 -18 -48 -40 -21 -22 -43 -40 -48 -40
-6 0 -8 -8 -5 -18 2 -10 -3 -24 -11 -31 -14 -12 -14 -17 -1 -48 8 -19 12 -39
10 -44 -3 -4 3 -14 15 -21 14 -9 20 -23 20 -50 0 -21 5 -38 10 -38 6 0 10 -7
10 -15 0 -9 10 -19 23 -24 49 -20 63 -24 87 -27 117 -11 139 -11 182 3 28 8
49 22 53 33 3 10 12 21 20 24 8 3 15 12 15 20 0 8 9 21 20 29 11 8 22 29 24
48 2 18 9 35 15 37 15 5 14 52 -1 52 -9 0 -8 4 2 11 11 8 12 12 3 16 -7 2 -13
12 -13 21 0 10 -7 26 -15 36 -8 11 -15 28 -15 38 0 10 -14 25 -32 34 -18 9
-40 24 -48 34 -18 21 -93 31 -132 18z"/>
<path d="M731 4299 c-66 -26 -143 -100 -174 -167 -17 -36 -22 -66 -22 -132 0
-102 23 -159 95 -231 65 -65 141 -92 240 -87 329 19 419 454 125 606 -71 36
-188 41 -264 11z m197 -114 c104 -44 151 -167 103 -270 -78 -169 -322 -143
-372 40 -26 94 38 205 136 237 36 11 95 8 133 -7z"/>
<path d="M810 4040 c-11 -11 -20 -29 -20 -40 0 -27 35 -60 63 -60 50 0 76 70
39 103 -25 23 -58 21 -82 -3z"/>
<path d="M7060 4311 c-195 -60 -288 -273 -200 -457 69 -141 252 -211 404 -154
71 27 141 92 176 165 21 41 25 65 25 135 0 70 -4 94 -25 135 -35 72 -105 138
-173 164 -59 21 -156 27 -207 12z m192 -142 c132 -86 123 -275 -16 -344 -105
-53 -219 -14 -267 90 -47 101 -4 219 96 267 53 25 138 19 187 -13z"/>
<path d="M7107 4042 c-35 -39 -9 -102 41 -102 28 0 62 34 62 60 0 27 -35 60
-63 60 -13 0 -31 -8 -40 -18z"/>
<path d="M6554 4000 c0 -74 1 -105 3 -67 2 37 2 97 0 135 -2 37 -3 6 -3 -68z"/>
<path d="M294 3917 l-27 -24 11 -154 c23 -288 71 -551 150 -814 31 -104 44
-133 66 -149 25 -19 29 -19 54 -5 37 20 39 62 8 157 -81 252 -134 533 -156
837 -8 124 -12 142 -31 158 -28 23 -43 22 -75 -6z"/>
<path d="M1725 3835 c-22 -8 -46 -15 -53 -15 -17 0 -102 -81 -102 -97 0 -6 -5
-13 -12 -15 -14 -5 -21 -53 -21 -144 0 -65 13 -99 40 -108 10 -3 27 -23 38
-43 16 -31 26 -39 55 -41 19 -2 39 -8 45 -13 5 -5 22 -9 37 -9 15 0 28 -4 28
-10 0 -5 9 -10 20 -10 11 0 20 4 20 10 0 5 16 12 35 16 19 3 35 10 35 14 0 4
26 15 58 24 45 14 61 24 70 45 12 28 33 63 43 71 3 3 9 24 13 47 5 35 3 45
-15 62 -12 11 -18 24 -14 31 9 14 -34 100 -54 107 -9 3 -35 14 -58 24 -23 11
-47 19 -52 19 -6 0 -11 4 -11 8 0 11 -38 30 -75 36 -16 3 -48 -1 -70 -9z"/>
<path d="M5856 3744 c-3 -9 -6 -24 -6 -35 0 -10 -4 -19 -10 -19 -5 0 -10 -4
-10 -10 0 -5 9 -10 19 -10 11 0 21 -4 23 -9 2 -5 50 -12 108 -16 58 -3 137
-10 175 -15 111 -15 133 -13 140 10 8 24 -9 49 -33 49 -9 0 -44 4 -77 10 -33
6 -80 13 -103 14 -24 2 -47 10 -52 17 -8 13 -79 28 -136 29 -20 1 -34 -5 -38
-15z"/>
<path d="M6405 3681 c-3 -2 -5 -24 -5 -48 l0 -43 40 0 c25 0 40 -5 41 -12 1
-7 5 5 9 27 4 22 4 47 -1 56 -8 16 -74 31 -84 20z"/>
<path d="M7620 3647 c-20 -10 -25 -20 -25 -52 0 -34 4 -42 29 -53 25 -13 31
-12 55 5 37 28 39 65 5 92 -31 25 -31 25 -64 8z"/>
<path d="M5819 3594 c-9 -3 -25 -23 -35 -44 -11 -22 -22 -40 -26 -40 -5 0 -8
-8 -8 -19 0 -27 84 -40 109 -17 10 9 30 16 44 16 29 0 41 25 35 76 -3 27 -6
29 -53 31 -27 0 -57 -1 -66 -3z"/>
<path d="M589 3554 c-18 -22 -15 -65 15 -215 36 -187 87 -370 108 -391 36 -36
98 -11 98 40 0 12 -16 82 -35 154 -19 73 -45 193 -59 267 -14 73 -31 140 -37
147 -16 19 -74 18 -90 -2z"/>
<path d="M1138 3549 c-37 -21 -39 -43 -13 -161 30 -138 71 -282 118 -408 37
-102 104 -256 121 -279 16 -21 49 -30 71 -18 47 24 46 50 -9 173 -82 188 -137
356 -180 553 -13 63 -30 119 -38 126 -20 19 -51 25 -70 14z"/>
<path d="M6787 3502 c-9 -9 -25 -60 -36 -111 -24 -108 -59 -229 -102 -349 -34
-98 -35 -106 -9 -132 25 -25 62 -26 84 -1 32 35 141 391 161 524 6 39 4 52
-10 67 -22 25 -67 26 -88 2z"/>
<path d="M6220 3501 c0 -5 -22 -11 -49 -15 -27 -3 -60 -15 -74 -26 -14 -11
-29 -20 -35 -20 -5 0 -21 -11 -35 -24 -37 -34 -135 -45 -171 -19 -14 10 -26
23 -26 30 0 11 -51 33 -76 33 -10 0 -14 -14 -14 -44 0 -68 36 -102 132 -125
57 -14 87 -17 116 -10 66 15 127 45 140 70 9 18 28 28 65 37 29 7 61 12 71 12
23 0 76 -38 76 -54 0 -8 6 -19 14 -25 11 -9 15 -4 20 29 4 27 11 40 22 40 12
0 14 -8 8 -46 -6 -41 -5 -46 12 -42 10 2 20 11 22 21 5 28 -18 76 -39 82 -10
4 -19 14 -19 24 0 26 -71 86 -81 69 -7 -10 -9 -10 -9 0 0 7 -14 12 -35 12 -19
0 -35 -4 -35 -9z"/>
<path d="M874 3405 c-38 -59 42 -129 89 -77 21 23 22 66 1 86 -24 25 -71 20
-90 -9z"/>
<path d="M7032 3373 c-14 -12 -31 -58 -53 -138 -42 -156 -45 -187 -24 -208 24
-25 71 -22 89 6 15 22 86 267 86 294 0 18 -45 63 -63 63 -8 0 -24 -8 -35 -17z"/>
<path d="M6294 3283 c-16 -6 -39 -12 -50 -13 -25 0 -34 -18 -34 -65 0 -36 15
-45 83 -45 28 0 43 6 60 26 12 15 33 37 47 50 20 20 23 27 14 42 -14 21 -77
24 -120 5z m106 -23 c0 -5 -4 -10 -10 -10 -5 0 -10 5 -10 10 0 6 5 10 10 10 6
0 10 -4 10 -10z"/>
<path d="M5685 3272 c-5 -4 -15 -22 -22 -41 -15 -41 -8 -49 60 -77 26 -10 56
-26 65 -34 9 -9 49 -31 87 -49 39 -19 72 -37 75 -41 3 -3 37 -22 75 -40 39
-19 72 -37 73 -42 7 -16 31 -7 38 14 3 12 13 28 20 35 15 16 8 43 -12 43 -8 0
-14 4 -14 9 0 5 -24 19 -54 31 -30 12 -57 28 -60 36 -3 8 -13 14 -21 14 -24 0
-105 39 -105 50 0 6 -5 10 -11 10 -21 0 -154 63 -162 76 -9 16 -17 17 -32 6z"/>
<path d="M7511 3111 c-11 -11 -25 -39 -31 -63 -19 -74 -99 -314 -130 -389 -17
-39 -30 -84 -30 -99 0 -53 64 -79 97 -41 23 28 75 159 133 339 64 198 69 223
41 251 -26 26 -55 27 -80 2z"/>
<path d="M2177 3073 c-16 -15 -7 -62 13 -68 47 -15 81 30 48 63 -13 13 -50 16
-61 5z"/>
<path d="M5568 3035 l-15 -44 38 -15 c21 -9 47 -23 58 -32 11 -10 45 -28 77
-41 31 -14 63 -30 70 -37 7 -7 40 -16 74 -20 82 -9 183 -41 249 -78 l53 -29
24 22 c32 30 30 45 -7 64 -24 13 -37 14 -61 6 -21 -8 -35 -8 -43 -1 -7 6 -17
10 -21 9 -12 -3 -61 18 -65 28 -4 8 -32 22 -111 57 -21 9 -38 20 -38 25 0 4
-36 22 -80 40 -44 18 -80 37 -80 42 0 5 -7 9 -15 9 -8 0 -15 5 -15 12 0 6 -3
8 -6 5 -4 -3 -16 0 -28 8 -32 23 -43 18 -58 -30z"/>
<path d="M1775 3060 c-3 -6 0 -17 8 -25 13 -13 16 -13 21 1 10 27 -15 47 -29
24z"/>
<path d="M1940 2950 c0 -5 -10 -10 -22 -10 -38 -1 -65 -32 -72 -81 -7 -56 2
-87 37 -129 25 -29 36 -34 83 -38 50 -4 56 -2 61 17 6 25 16 26 37 5 17 -16
20 -10 17 28 -1 9 7 23 18 30 23 14 27 38 9 56 -6 6 -13 20 -15 31 -5 38 -23
71 -37 71 -8 0 -22 7 -30 16 -9 8 -16 11 -16 5 0 -6 -7 -11 -15 -11 -8 0 -15
5 -15 10 0 6 -9 10 -20 10 -11 0 -20 -4 -20 -10z"/>
<path d="M6140 2920 c0 -11 4 -20 9 -20 5 0 11 -10 13 -22 2 -12 18 -30 36
-41 43 -25 62 -11 62 49 0 51 -13 63 -37 34 -19 -22 -39 -28 -27 -7 5 8 2 8
-9 -2 -15 -12 -17 -11 -17 8 0 12 -6 21 -15 21 -8 0 -15 -9 -15 -20z"/>
<path d="M1703 2919 c-18 -18 24 -98 48 -92 36 10 50 37 38 71 -9 27 -16 32
-43 32 -18 0 -37 -5 -43 -11z"/>
<path d="M1044 2912 c-6 -4 -16 -17 -23 -29 -15 -29 22 -128 125 -331 107
-210 230 -400 378 -582 90 -112 258 -280 279 -280 22 0 67 43 67 64 0 8 -52
73 -116 143 -263 289 -424 535 -579 884 -30 67 -61 126 -68 131 -15 10 -49 10
-63 0z"/>
<path d="M5412 2828 c-30 -33 -28 -43 13 -62 33 -16 36 -16 81 7 47 24 47 24
25 39 -16 11 -19 17 -9 21 7 2 2 5 -12 5 -14 0 -36 3 -50 7 -19 5 -31 1 -48
-17z"/>
<path d="M2563 2781 c-6 -10 -25 -21 -42 -24 -27 -6 -32 -12 -37 -47 -4 -25
-14 -45 -25 -51 -15 -7 -19 -6 -19 6 0 8 -4 15 -10 15 -5 0 -10 -4 -10 -8 0
-14 -36 -52 -49 -52 -6 0 -10 -6 -8 -12 1 -7 -5 -13 -13 -13 -25 -1 -60 -29
-60 -47 0 -9 -8 -19 -18 -22 -9 -3 -41 -29 -70 -57 -56 -54 -57 -63 -13 -103
21 -19 21 -19 64 26 23 25 52 51 65 57 12 6 22 17 22 24 0 30 26 67 47 67 12
0 26 6 30 13 4 6 24 24 44 39 23 17 37 36 37 50 2 76 7 91 30 94 16 3 25 -2
31 -18 l8 -23 7 22 c5 15 12 19 26 16 14 -4 20 0 20 11 0 9 -8 16 -21 16 -11
0 -18 4 -15 8 2 4 1 13 -3 20 -5 8 -10 6 -18 -7z m-153 -181 c-8 -5 -17 -7
-19 -4 -3 3 1 9 9 14 8 5 17 7 19 4 3 -3 -1 -9 -9 -14z m-180 -200 c0 -5 -4
-10 -10 -10 -5 0 -10 5 -10 10 0 6 5 10 10 10 6 0 10 -4 10 -10z"/>
<path d="M5360 2759 c0 -6 10 -19 22 -29 18 -14 27 -16 42 -8 19 10 19 11 -3
29 -25 21 -61 25 -61 8z"/>
<path d="M7098 2728 c-20 -16 -138 -267 -138 -295 0 -46 71 -71 103 -35 28 31
127 251 127 281 0 52 -53 79 -92 49z"/>
<path d="M5677 2695 c-90 -25 -160 -67 -233 -139 -105 -105 -154 -220 -154
-361 0 -141 50 -265 150 -366 273 -277 734 -172 861 198 97 282 -73 591 -367
668 -70 18 -191 18 -257 0z m334 -420 c68 37 129 70 134 73 16 9 -13 -25 -143
-170 -68 -76 -127 -138 -131 -138 -3 0 -36 29 -71 65 -35 36 -68 65 -73 65 -4
0 -62 -30 -128 -66 -67 -36 -122 -64 -124 -62 -2 2 57 72 132 156 l136 153 72
-71 72 -72 124 67z"/>
<path d="M6756 2614 c-36 -35 -6 -104 44 -104 20 0 60 41 60 61 0 49 -69 78
-104 43z"/>
<path d="M5164 2565 c-4 -8 -13 -15 -21 -15 -8 0 -23 -10 -33 -22 -16 -21 -16
-24 -2 -48 24 -36 30 -38 69 -25 72 25 88 125 20 125 -15 0 -30 -7 -33 -15z"/>
<path d="M2805 2465 c-30 -31 -55 -58 -55 -62 0 -3 -83 -89 -185 -190 l-186
-185 26 -24 c35 -32 67 -30 102 6 15 17 33 30 40 30 7 0 16 7 20 15 7 12 15
11 55 -9 l46 -23 -17 -39 c-10 -22 -21 -51 -25 -66 -3 -16 -11 -28 -16 -28 -6
0 -10 -4 -10 -10 0 -5 6 -10 13 -10 6 0 22 -11 35 -24 30 -32 62 -24 62 14 0
15 6 33 13 39 8 6 20 36 27 66 7 30 16 55 19 55 13 0 43 62 38 80 -3 12 0 17
8 14 7 -3 16 4 20 15 3 12 11 21 16 21 5 0 9 11 9 24 0 13 7 29 15 36 8 7 12
17 9 22 -8 12 34 108 55 128 9 8 17 20 18 25 1 6 4 22 8 35 4 19 -1 32 -20 53
-14 15 -29 27 -33 27 -4 0 -18 -24 -32 -53 -14 -28 -29 -55 -34 -59 -5 -3 -9
-21 -9 -38 0 -20 -9 -41 -23 -55 -13 -13 -26 -35 -30 -49 -3 -14 -9 -26 -13
-26 -4 0 -22 -38 -40 -84 -18 -47 -40 -87 -48 -90 -11 -5 -13 -1 -7 17 4 12
11 25 16 28 4 3 -3 11 -17 19 -17 9 -25 22 -25 40 0 31 32 65 53 57 8 -3 14 0
14 6 -1 32 6 44 37 65 20 14 46 47 63 80 15 31 32 60 36 63 12 8 36 82 30 91
-9 16 -24 7 -78 -47z"/>
<path d="M5080 2482 c0 -21 -29 -45 -45 -38 -8 3 -15 0 -15 -7 0 -8 -4 -7 -10
3 -5 8 -12 12 -15 8 -8 -8 40 -77 65 -95 11 -8 20 -20 20 -27 0 -7 16 -27 35
-45 42 -38 47 -31 49 61 1 52 -2 62 -24 80 -14 11 -33 32 -42 47 -10 14 -18
20 -18 13z"/>
<path d="M2102 2378 c-17 -20 -21 -34 -16 -50 10 -33 46 -78 61 -78 7 0 13 -5
13 -11 0 -6 18 -28 40 -50 36 -36 42 -38 55 -25 8 8 24 18 35 21 20 6 28 25
10 25 -5 0 -12 10 -15 23 -4 13 -41 57 -83 99 l-77 75 -23 -29z"/>
<path d="M1647 2322 c-35 -39 -9 -102 41 -102 29 0 62 34 62 63 0 50 -70 76
-103 39z"/>
<path d="M4775 2329 c-3 -9 -20 -20 -38 -23 -47 -9 -107 -38 -107 -51 0 -18
21 -75 28 -75 17 0 142 57 146 66 3 7 -1 31 -9 55 -9 32 -15 39 -20 28z"/>
<path d="M3150 2320 c0 -5 -6 -10 -12 -10 -37 -1 -73 -61 -98 -159 -15 -58 21
-201 50 -201 6 0 10 -7 10 -15 0 -8 4 -15 9 -15 5 0 12 -24 15 -54 9 -66 -5
-98 -53 -124 -36 -19 -42 -35 -15 -41 18 -3 44 -25 44 -36 0 -4 -12 -4 -27 0
-46 11 -98 85 -60 85 9 0 9 2 -1 8 -7 5 -15 32 -19 60 -5 49 -7 52 -40 58 -41
8 -60 -7 -64 -51 -4 -59 2 -75 45 -121 43 -45 45 -46 58 -25 15 25 28 27 28 6
0 -8 -4 -15 -10 -15 -21 0 -9 -18 18 -27 26 -10 54 -3 92 22 8 5 21 10 28 11
8 2 15 4 16 6 1 2 16 20 34 41 33 38 33 39 28 126 -4 69 -11 98 -30 136 -15
26 -26 54 -26 61 0 8 -4 14 -9 14 -10 0 -22 90 -14 118 3 11 20 28 39 37 21
10 34 23 34 35 0 10 7 25 15 34 8 8 15 17 15 20 0 3 -7 6 -15 6 -8 0 -15 5
-15 10 0 6 -16 10 -35 10 -19 0 -35 -4 -35 -10z"/>
<path d="M3254 2275 c-3 -14 -10 -25 -15 -25 -15 0 -10 -38 6 -44 9 -3 15 -18
15 -40 0 -39 20 -56 65 -56 32 0 49 39 40 95 -7 48 -18 62 -63 81 -43 18 -41
18 -48 -11z"/>
<path d="M4591 2252 c-8 -2 -22 -11 -31 -19 -16 -14 -16 -20 -4 -61 8 -25 18
-48 23 -51 4 -4 23 -51 41 -106 18 -55 36 -102 40 -105 4 -3 22 -49 40 -102
17 -54 34 -98 38 -98 4 0 16 -28 26 -61 l19 -61 35 6 c19 3 37 7 39 10 5 5
-29 109 -39 116 -4 3 -20 45 -37 94 -16 49 -33 92 -38 95 -4 3 -21 45 -37 94
-17 51 -35 87 -43 87 -17 0 -17 17 -1 22 10 4 9 9 -3 20 -9 9 -22 38 -29 65
-15 55 -20 62 -39 55z"/>
<path d="M4446 2211 c-4 -5 -20 -12 -36 -16 -28 -6 -29 -7 -14 -30 9 -13 11
-24 5 -27 -10 -3 6 -99 18 -108 7 -4 49 -191 67 -292 3 -21 9 -38 13 -38 4 0
15 -40 25 -90 l18 -90 32 0 c50 0 64 34 44 103 -9 28 -19 70 -23 92 -4 22 -10
42 -14 45 -4 3 -18 57 -30 120 -30 154 -43 210 -52 210 -3 0 -12 27 -18 60
-12 58 -24 80 -35 61z"/>
<path d="M3495 2186 c-36 -16 -50 -43 -65 -127 -18 -98 8 -182 75 -244 17 -16
35 -42 39 -57 3 -16 11 -28 16 -28 5 0 12 -15 15 -34 6 -30 2 -39 -34 -76 -23
-23 -41 -46 -41 -51 0 -5 15 -9 34 -9 39 0 49 -9 35 -30 -8 -12 -12 -12 -16
-2 -2 6 -14 12 -26 12 -31 1 -58 24 -61 51 -1 13 -8 37 -14 52 -7 16 -12 37
-12 47 0 14 -10 21 -35 26 -49 9 -65 -7 -65 -66 0 -48 28 -100 54 -100 6 0 19
-9 29 -20 9 -11 22 -20 28 -20 6 0 13 9 16 20 7 28 23 25 23 -4 0 -18 6 -26
23 -28 28 -4 77 19 77 37 0 7 15 23 34 34 34 21 44 40 52 97 5 40 -20 139 -41
160 -8 8 -15 18 -15 22 0 4 -16 24 -36 46 -25 28 -40 57 -51 102 -14 58 -14
65 1 89 9 14 23 25 30 25 12 0 26 41 26 76 0 18 -54 18 -95 0z"/>
<path d="M3608 2184 c-11 -11 -10 -84 1 -84 5 0 13 -15 16 -32 9 -41 19 -48
73 -48 l42 0 0 49 c0 41 -5 55 -28 81 -28 30 -89 50 -104 34z"/>
<path d="M4120 2160 c0 -5 -8 -10 -17 -10 -10 0 -33 -15 -52 -32 -34 -31 -34
-31 -32 -111 1 -45 5 -84 9 -87 4 -3 16 -22 26 -43 11 -21 38 -53 60 -70 23
-17 47 -37 54 -44 7 -7 20 -13 29 -13 17 0 52 -38 53 -58 0 -7 7 -15 15 -18
16 -6 22 -74 7 -74 -14 0 -47 -68 -38 -77 5 -4 11 -2 13 5 6 17 63 16 63 -2 0
-16 -62 -26 -84 -14 -7 4 -17 19 -20 33 -4 14 -13 25 -20 25 -8 0 -22 18 -32
40 -19 43 -25 46 -74 29 -31 -11 -32 -14 -27 -52 8 -56 35 -88 87 -103 61 -18
80 -17 80 4 1 16 1 16 10 0 19 -32 100 0 100 39 0 8 9 22 21 32 14 11 23 33
26 63 6 56 0 86 -24 114 -10 11 -25 33 -35 49 -9 17 -26 35 -38 42 -13 6 -25
15 -29 21 -3 5 -25 21 -48 36 -24 14 -43 31 -43 37 0 6 -9 22 -20 36 -23 30
-26 70 -6 99 15 21 11 114 -5 114 -5 0 -9 -4 -9 -10z"/>
<path d="M4160 2120 c0 -43 3 -50 20 -50 12 0 29 -14 42 -35 21 -31 58 -48 58
-26 0 5 9 11 20 14 37 10 19 89 -29 130 -13 10 -38 17 -66 17 l-45 0 0 -50z"/>
<path d="M827 2139 c-32 -24 -34 -48 -9 -79 20 -25 63 -30 87 -10 18 15 20 74
3 88 -28 22 -55 22 -81 1z"/>
<path d="M7086 2124 c-17 -16 -21 -51 -8 -70 24 -37 91 -36 106 1 18 47 -7 85
-54 85 -16 0 -36 -7 -44 -16z"/>
<path d="M1200 2087 c-41 -20 -39 -67 6 -130 58 -81 201 -253 273 -329 71 -73
96 -83 131 -48 37 37 26 62 -71 167 -50 54 -133 153 -185 219 -78 101 -111
135 -127 134 -1 0 -13 -6 -27 -13z"/>
<path d="M6712 2036 c-11 -6 -56 -56 -100 -112 -155 -196 -364 -403 -567 -561
-60 -47 -114 -93 -119 -103 -25 -54 30 -103 84 -75 66 34 294 228 435 369 157
157 355 394 355 424 0 45 -51 79 -88 58z"/>
<path d="M4805 2030 c-3 -5 -15 -10 -26 -10 -10 0 -19 -4 -19 -10 0 -5 -7 -10
-15 -10 -8 0 -15 -9 -15 -20 0 -11 4 -20 10 -20 5 0 12 -11 16 -25 7 -29 16
-31 38 -10 8 8 23 15 33 15 23 0 43 18 38 34 -2 6 -6 23 -9 39 -6 27 -38 38
-51 17z"/>
<path d="M2004 1925 c-26 -27 -26 -55 1 -84 18 -18 63 -17 82 2 23 23 19 68
-7 89 -30 24 -46 23 -76 -7z"/>
<path d="M4810 1770 c0 -5 5 -10 10 -10 6 0 10 5 10 10 0 6 -4 10 -10 10 -5 0
-10 -4 -10 -10z"/>
<path d="M4990 1773 c0 -7 -5 -13 -12 -13 -7 0 -38 -10 -70 -22 -62 -24 -66
-32 -47 -86 10 -29 12 -30 42 -20 18 5 41 13 52 18 11 5 30 12 43 15 17 5 22
14 22 38 -1 30 -29 97 -30 70z"/>
<path d="M6777 1692 c-21 -23 -22 -66 -1 -86 23 -24 70 -20 88 6 21 30 20 54
-4 78 -25 25 -62 26 -83 2z"/>
<path d="M1310 1500 c-38 -38 -27 -58 104 -186 132 -129 306 -272 452 -373 76
-53 95 -61 118 -55 35 9 53 45 38 78 -6 13 -50 52 -99 87 -139 99 -257 196
-410 337 -86 80 -150 132 -162 132 -12 0 -30 -9 -41 -20z"/>
<path d="M2657 1472 c-22 -24 -22 -65 1 -85 23 -21 264 -127 289 -127 40 0 68
61 45 98 -5 7 -44 27 -88 46 -44 19 -103 45 -132 60 -61 31 -93 33 -115 8z"/>
<path d="M3933 1443 c37 -2 97 -2 135 0 37 2 6 3 -68 3 -74 0 -105 -1 -67 -3z"/>
<path d="M5700 1430 c-24 -24 -25 -48 -4 -78 31 -45 104 -19 104 37 0 55 -61
80 -100 41z"/>
<path d="M4987 1352 c-36 -39 -11 -102 39 -102 29 0 64 33 64 60 0 27 -35 60
-63 60 -13 0 -31 -8 -40 -18z"/>
<path d="M1927 1312 c-23 -25 -21 -58 3 -82 39 -39 100 -14 100 43 0 52 -68
78 -103 39z"/>
<path d="M2402 1318 c-21 -27 -22 -55 -3 -79 38 -49 385 -208 621 -286 171
-56 208 -55 222 4 10 41 -18 61 -135 98 -188 59 -294 102 -474 191 -170 83
-211 96 -231 72z"/>
<path d="M6315 1235 c-446 -379 -1014 -653 -1595 -769 -124 -25 -282 -49 -413
-61 -97 -9 -130 -47 -91 -103 19 -27 41 -28 219 -7 706 82 1393 375 1939 827
128 106 143 126 124 165 -10 22 -21 28 -48 30 -31 2 -47 -8 -135 -82z"/>
<path d="M4475 1205 c-30 -29 -31 -45 -7 -75 21 -26 66 -30 89 -7 23 23 19 68
-7 89 -30 24 -46 23 -75 -7z"/>
<path d="M3941 1169 c-149 -29 -250 -146 -259 -299 -5 -99 22 -175 87 -240 72
-71 129 -95 231 -95 102 0 159 24 231 95 159 159 94 450 -117 523 -56 20 -122
26 -173 16z m137 -134 c49 -21 81 -52 103 -100 67 -146 -74 -318 -226 -276
-146 40 -202 210 -107 323 52 62 152 85 230 53z"/>
<path d="M3957 892 c-10 -10 -17 -28 -17 -40 0 -28 34 -62 60 -62 27 0 60 35
60 63 0 50 -70 76 -103 39z"/>
<path d="M4986 1077 c-41 -30 -8 -111 42 -105 14 2 34 16 46 31 19 26 19 30 5
55 -17 31 -63 41 -93 19z"/>
<path d="M5482 1004 c-45 -31 -17 -104 40 -104 51 0 78 69 40 103 -23 21 -51
22 -80 1z"/>
<path d="M4466 944 c-36 -35 -7 -104 42 -104 29 0 62 34 62 63 0 49 -70 76
-104 41z"/>
<path d="M2882 824 c-26 -18 -30 -65 -6 -88 23 -24 70 -20 88 6 22 31 20 51
-7 76 -28 26 -45 27 -75 6z"/>
<path d="M4981 793 c-32 -40 -11 -93 38 -93 58 0 84 58 46 100 -25 28 -60 25
-84 -7z"/>
<path d="M2404 732 c-6 -4 -16 -17 -23 -29 -21 -42 3 -68 103 -112 189 -82
412 -161 458 -161 40 0 65 40 48 80 -11 26 -25 33 -139 71 -69 23 -188 68
-264 100 -136 58 -162 66 -183 51z"/>
<path d="M4460 678 c-24 -26 -25 -46 -4 -76 18 -26 65 -30 88 -6 24 23 20 70
-6 88 -31 22 -54 20 -78 -6z"/>
<path d="M3418 413 c-23 -25 -23 -66 0 -86 21 -19 282 -54 324 -44 48 12 57
94 12 111 -15 6 -95 16 -259 32 -51 5 -63 4 -77 -13z"/>
</g>
</svg>
